<?xml version="1.0" encoding="UTF-8" standalone="no"?>
<!-- Created with Inkscape (http://www.inkscape.org/) -->

<svg
   xmlns:dc="http://purl.org/dc/elements/1.1/"
   xmlns:cc="http://creativecommons.org/ns#"
   xmlns:rdf="http://www.w3.org/1999/02/22-rdf-syntax-ns#"
   xmlns:svg="http://www.w3.org/2000/svg"
   xmlns="http://www.w3.org/2000/svg"
   xmlns:sodipodi="http://sodipodi.sourceforge.net/DTD/sodipodi-0.dtd"
   xmlns:inkscape="http://www.inkscape.org/namespaces/inkscape"
   id="svg3004"
   version="1.1"
   inkscape:version="0.48.4 r9939"
   width="100"
   height="100"
   xml:space="preserve"
   sodipodi:docname="rd_faces.bw-trans.svg"
   inkscape:export-filename="/home/baboso/rd_faces.bw-trans.png"
   inkscape:export-xdpi="89.989998"
   inkscape:export-ydpi="89.989998"><metadata
     id="metadata3010"><rdf:RDF><cc:Work
         rdf:about=""><dc:format>image/svg+xml</dc:format><dc:type
           rdf:resource="http://purl.org/dc/dcmitype/StillImage" /><dc:title></dc:title></cc:Work></rdf:RDF></metadata><defs
     id="defs3008"><clipPath
       clipPathUnits="userSpaceOnUse"
       id="clipPath3018"><path
         d="M 0,600 800,600 800,0 0,0 0,600 z"
         id="path3020"
         inkscape:connector-curvature="0" /></clipPath><clipPath
       clipPathUnits="userSpaceOnUse"
       id="clipPath3110"><path
         d="M 0,600 800,600 800,0 0,0 0,600 z"
         id="path3112"
         inkscape:connector-curvature="0" /></clipPath><clipPath
       clipPathUnits="userSpaceOnUse"
       id="clipPath3118"><path
         d="m 369.628,257.921 33.606,0 0,-67.07 -33.606,0 0,67.07 z"
         id="path3120"
         inkscape:connector-curvature="0" /></clipPath><clipPath
       clipPathUnits="userSpaceOnUse"
       id="clipPath3134"><path
         d="m 418.744,385.792 79.017,0 0,-114.973 -79.017,0 0,114.973 z"
         id="path3136"
         inkscape:connector-curvature="0" /></clipPath><clipPath
       clipPathUnits="userSpaceOnUse"
       id="clipPath3150"><path
         d="m 352.398,424.634 74.463,0 0,-71.885 -74.463,0 0,71.885 z"
         id="path3152"
         inkscape:connector-curvature="0" /></clipPath><clipPath
       clipPathUnits="userSpaceOnUse"
       id="clipPath3166"><path
         d="m 533.381,244.978 15.238,0 0,-21.692 -15.238,0 0,21.692 z"
         id="path3168"
         inkscape:connector-curvature="0" /></clipPath><clipPath
       clipPathUnits="userSpaceOnUse"
       id="clipPath3182"><path
         d="m 564.836,326.873 50.608,0 0,-73.636 -50.608,0 0,73.636 z"
         id="path3184"
         inkscape:connector-curvature="0" /></clipPath><clipPath
       clipPathUnits="userSpaceOnUse"
       id="clipPath3198"><path
         d="m 522.346,351.749 47.689,0 0,-46.04 -47.689,0 0,46.04 z"
         id="path3200"
         inkscape:connector-curvature="0" /></clipPath><clipPath
       clipPathUnits="userSpaceOnUse"
       id="clipPath3214"><path
         d="m 228.082,244.978 15.239,0 0,-35.26 -15.239,0 0,35.26 z"
         id="path3216"
         inkscape:connector-curvature="0" /></clipPath><clipPath
       clipPathUnits="userSpaceOnUse"
       id="clipPath3230"><path
         d="m 259.538,326.873 35.804,0 0,-73.636 -35.804,0 0,73.636 z"
         id="path3232"
         inkscape:connector-curvature="0" /></clipPath><clipPath
       clipPathUnits="userSpaceOnUse"
       id="clipPath3246"><path
         d="m 217.048,351.749 47.689,0 0,-46.04 -47.689,0 0,46.04 z"
         id="path3248"
         inkscape:connector-curvature="0" /></clipPath><clipPath
       clipPathUnits="userSpaceOnUse"
       id="clipPath3262"><path
         d="M 0,600 800,600 800,0 0,0 0,600 z"
         id="path3264"
         inkscape:connector-curvature="0" /></clipPath><clipPath
       clipPathUnits="userSpaceOnUse"
       id="clipPath3270"><path
         d="m 357.024,257.845 16.295,0 0,-57.416 -16.295,0 0,57.416 z"
         id="path3272"
         inkscape:connector-curvature="0" /></clipPath><clipPath
       clipPathUnits="userSpaceOnUse"
       id="clipPath3286"><path
         d="m 383.444,197.755 14.987,0 0,-9.287 -14.987,0 0,9.287 z"
         id="path3288"
         inkscape:connector-curvature="0" /></clipPath><clipPath
       clipPathUnits="userSpaceOnUse"
       id="clipPath3302"><path
         d="m 366.73,406.593 125.42,0 0,-86.354 -125.42,0 0,86.354 z"
         id="path3304"
         inkscape:connector-curvature="0" /></clipPath><clipPath
       clipPathUnits="userSpaceOnUse"
       id="clipPath3318"><path
         d="m 320.496,428.28 67.134,0 0,-19.65 -67.134,0 0,19.65 z"
         id="path3320"
         inkscape:connector-curvature="0" /></clipPath><clipPath
       clipPathUnits="userSpaceOnUse"
       id="clipPath3334"><path
         d="m 525.311,244.929 10.434,0 0,-21.643 -10.434,0 0,21.643 z"
         id="path3336"
         inkscape:connector-curvature="0" /></clipPath><clipPath
       clipPathUnits="userSpaceOnUse"
       id="clipPath3350"><path
         d="m 531.524,340.194 80.326,0 0,-55.305 -80.326,0 0,55.305 z"
         id="path3352"
         inkscape:connector-curvature="0" /></clipPath><clipPath
       clipPathUnits="userSpaceOnUse"
       id="clipPath3366"><path
         d="m 501.914,354.083 42.996,0 0,-12.584 -42.996,0 0,12.584 z"
         id="path3368"
         inkscape:connector-curvature="0" /></clipPath><clipPath
       clipPathUnits="userSpaceOnUse"
       id="clipPath3382"><path
         d="m 220.012,244.929 10.436,0 0,-23.867 -10.436,0 0,23.867 z"
         id="path3384"
         inkscape:connector-curvature="0" /></clipPath><clipPath
       clipPathUnits="userSpaceOnUse"
       id="clipPath3398"><path
         d="m 226.227,340.194 57.623,0 0,-55.305 -57.623,0 0,55.305 z"
         id="path3400"
         inkscape:connector-curvature="0" /></clipPath><clipPath
       clipPathUnits="userSpaceOnUse"
       id="clipPath3414"><path
         d="m 196.615,354.083 42.996,0 0,-12.584 -42.996,0 0,12.584 z"
         id="path3416"
         inkscape:connector-curvature="0" /></clipPath><clipPath
       clipPathUnits="userSpaceOnUse"
       id="clipPath3430"><path
         d="M 0,600 800,600 800,0 0,0 0,600 z"
         id="path3432"
         inkscape:connector-curvature="0" /></clipPath><clipPath
       clipPathUnits="userSpaceOnUse"
       id="clipPath3438"><path
         d="m 376.438,334.063 75.107,0 0,-112.142 -75.107,0 0,112.142 z"
         id="path3440"
         inkscape:connector-curvature="0" /></clipPath><clipPath
       clipPathUnits="userSpaceOnUse"
       id="clipPath3454"><path
         d="m 331.236,409.097 25.925,0 0,-79.955 -25.925,0 0,79.955 z"
         id="path3456"
         inkscape:connector-curvature="0" /></clipPath><clipPath
       clipPathUnits="userSpaceOnUse"
       id="clipPath3470"><path
         d="m 326.036,319.983 17.223,0 0,-58.062 -17.223,0 0,58.062 z"
         id="path3472"
         inkscape:connector-curvature="0" /></clipPath><clipPath
       clipPathUnits="userSpaceOnUse"
       id="clipPath3486"><path
         d="m 290.049,542.262 42.089,0 0,-123.292 -42.089,0 0,123.292 z"
         id="path3488"
         inkscape:connector-curvature="0" /></clipPath><clipPath
       clipPathUnits="userSpaceOnUse"
       id="clipPath3502"><path
         d="m 402.565,445.979 27.257,0 0,-8.005 -27.257,0 0,8.005 z"
         id="path3504"
         inkscape:connector-curvature="0" /></clipPath><clipPath
       clipPathUnits="userSpaceOnUse"
       id="clipPath3518"><path
         d="m 537.744,293.743 48.102,0 0,-70.457 -48.102,0 0,70.457 z"
         id="path3520"
         inkscape:connector-curvature="0" /></clipPath><clipPath
       clipPathUnits="userSpaceOnUse"
       id="clipPath3534"><path
         d="m 508.793,341.798 16.603,0 0,-51.207 -16.603,0 0,51.207 z"
         id="path3536"
         inkscape:connector-curvature="0" /></clipPath><clipPath
       clipPathUnits="userSpaceOnUse"
       id="clipPath3550"><path
         d="m 505.461,284.726 11.031,0 0,-37.187 -11.031,0 0,37.187 z"
         id="path3552"
         inkscape:connector-curvature="0" /></clipPath><clipPath
       clipPathUnits="userSpaceOnUse"
       id="clipPath3566"><path
         d="m 482.414,427.083 26.955,0 0,-78.963 -26.955,0 0,78.963 z"
         id="path3568"
         inkscape:connector-curvature="0" /></clipPath><clipPath
       clipPathUnits="userSpaceOnUse"
       id="clipPath3582"><path
         d="m 554.477,365.42 17.455,0 0,-5.128 -17.455,0 0,5.128 z"
         id="path3584"
         inkscape:connector-curvature="0" /></clipPath><clipPath
       clipPathUnits="userSpaceOnUse"
       id="clipPath3598"><path
         d="m 232.445,293.743 48.102,0 0,-70.457 -48.102,0 0,70.457 z"
         id="path3600"
         inkscape:connector-curvature="0" /></clipPath><clipPath
       clipPathUnits="userSpaceOnUse"
       id="clipPath3614"><path
         d="m 203.494,341.798 16.605,0 0,-51.207 -16.605,0 0,51.207 z"
         id="path3616"
         inkscape:connector-curvature="0" /></clipPath><clipPath
       clipPathUnits="userSpaceOnUse"
       id="clipPath3630"><path
         d="m 200.163,284.726 11.031,0 0,-37.187 -11.031,0 0,37.187 z"
         id="path3632"
         inkscape:connector-curvature="0" /></clipPath><clipPath
       clipPathUnits="userSpaceOnUse"
       id="clipPath3646"><path
         d="m 177.116,427.083 26.955,0 0,-78.963 -26.955,0 0,78.963 z"
         id="path3648"
         inkscape:connector-curvature="0" /></clipPath><clipPath
       clipPathUnits="userSpaceOnUse"
       id="clipPath3662"><path
         d="m 249.178,365.42 17.456,0 0,-5.128 -17.456,0 0,5.128 z"
         id="path3664"
         inkscape:connector-curvature="0" /></clipPath><clipPath
       clipPathUnits="userSpaceOnUse"
       id="clipPath3678"><path
         d="M 0,600 800,600 800,0 0,0 0,600 z"
         id="path3680"
         inkscape:connector-curvature="0" /></clipPath><clipPath
       clipPathUnits="userSpaceOnUse"
       id="clipPath3686"><path
         d="m 285.225,405.843 53.086,0 0,-143.928 -53.086,0 0,143.928 z"
         id="path3688"
         inkscape:connector-curvature="0" /></clipPath><clipPath
       clipPathUnits="userSpaceOnUse"
       id="clipPath3702"><path
         d="m 422.905,277.062 15.601,0 0,-55.141 -15.601,0 0,55.141 z"
         id="path3704"
         inkscape:connector-curvature="0" /></clipPath><clipPath
       clipPathUnits="userSpaceOnUse"
       id="clipPath3718"><path
         d="m 333.374,378.47 64.457,0 0,-116.555 -64.457,0 0,116.555 z"
         id="path3720"
         inkscape:connector-curvature="0" /></clipPath><clipPath
       clipPathUnits="userSpaceOnUse"
       id="clipPath3734"><path
         d="m 298.951,539.916 200.631,0 0,-102.464 -200.631,0 0,102.464 z"
         id="path3736"
         inkscape:connector-curvature="0" /></clipPath><clipPath
       clipPathUnits="userSpaceOnUse"
       id="clipPath3750"><path
         d="m 479.324,339.714 34,0 0,-92.179 -34,0 0,92.179 z"
         id="path3752"
         inkscape:connector-curvature="0" /></clipPath><clipPath
       clipPathUnits="userSpaceOnUse"
       id="clipPath3766"><path
         d="m 567.668,257.236 9.826,0 0,-33.95 -9.826,0 0,33.95 z"
         id="path3768"
         inkscape:connector-curvature="0" /></clipPath><clipPath
       clipPathUnits="userSpaceOnUse"
       id="clipPath3782"><path
         d="m 510.161,322.183 41.282,0 0,-74.648 -41.282,0 0,74.648 z"
         id="path3784"
         inkscape:connector-curvature="0" /></clipPath><clipPath
       clipPathUnits="userSpaceOnUse"
       id="clipPath3798"><path
         d="m 488.115,425.582 128.494,0 0,-65.624 -128.494,0 0,65.624 z"
         id="path3800"
         inkscape:connector-curvature="0" /></clipPath><clipPath
       clipPathUnits="userSpaceOnUse"
       id="clipPath3814"><path
         d="m 174.026,339.714 34,0 0,-92.179 -34,0 0,92.179 z"
         id="path3816"
         inkscape:connector-curvature="0" /></clipPath><clipPath
       clipPathUnits="userSpaceOnUse"
       id="clipPath3830"><path
         d="m 262.369,257.236 9.826,0 0,-33.95 -9.826,0 0,33.95 z"
         id="path3832"
         inkscape:connector-curvature="0" /></clipPath><clipPath
       clipPathUnits="userSpaceOnUse"
       id="clipPath3846"><path
         d="m 204.863,322.183 41.283,0 0,-74.648 -41.283,0 0,74.648 z"
         id="path3848"
         inkscape:connector-curvature="0" /></clipPath><clipPath
       clipPathUnits="userSpaceOnUse"
       id="clipPath3862"><path
         d="m 182.817,425.582 118.386,0 0,-65.624 -118.386,0 0,65.624 z"
         id="path3864"
         inkscape:connector-curvature="0" /></clipPath></defs><sodipodi:namedview
     pagecolor="#ffffff"
     bordercolor="#666666"
     borderopacity="1"
     objecttolerance="10"
     gridtolerance="10"
     guidetolerance="10"
     inkscape:pageopacity="0"
     inkscape:pageshadow="2"
     inkscape:window-width="1280"
     inkscape:window-height="780"
     id="namedview3006"
     showgrid="false"
     fit-margin-top="0"
     fit-margin-left="0"
     fit-margin-right="0"
     fit-margin-bottom="0"
     inkscape:zoom="3.5600469"
     inkscape:cx="8.3047738"
     inkscape:cy="43.481035"
     inkscape:window-x="-2"
     inkscape:window-y="-3"
     inkscape:window-maximized="1"
     inkscape:current-layer="g3012" /><g
     id="g3012"
     inkscape:groupmode="layer"
     inkscape:label="120309_RD_aplicaciones"
     transform="matrix(1.25,0,0,-1.25,-317.76735,544.85592)"><g
       id="g4948"
       transform="matrix(0.50852012,0,0,0.50852012,15.857108,249.08595)"><path
         sodipodi:nodetypes="ccccccccc"
         inkscape:connector-curvature="0"
         id="path5049"
         d="m 516.4922,247.5391 c -3.11417,2.52024 -4.16771,6.71275 -4.041,10.56204 -0.009,6.0107 0.017,12.02215 -0.0128,18.03238 -0.27145,3.1585 -1.73378,6.10771 -3.64517,8.59258 -0.0109,-9.91625 0.022,-19.83317 -0.0166,-29.749 -0.0974,-2.77777 -1.15731,-5.60991 -3.31541,-7.438 3.677,0 7.354,0 11.031,0 l -10e-6,0 z"
         style="opacity:0.39999396;fill:#000000;fill-opacity:1;fill-rule:nonzero;stroke:none" /><path
         style="opacity:0.19999701;fill:#000000;fill-opacity:1;fill-rule:nonzero;stroke:none"
         d="m 506.2302,316.9136 c -0.0292,8.07419 2.10894,16.34026 7.094,22.801 -4.74239,-0.54801 -9.51703,-0.79351 -14.29,-0.813 -7.69073,-7.36325 -11.48379,-17.71218 -14.55551,-27.66652 -2.59915,-9.20429 -4.63347,-18.64577 -5.15449,-28.21448 -0.41183,-2.58297 2.59602,-1.62144 4.16299,-1.803 1.39937,-0.19538 3.74142,0.68342 4.08301,-1.283 0.0506,-8.01952 -0.10419,-16.04585 0.083,-24.06087 0.11339,-4.4588 3.89042,-8.3732 8.40856,-8.33039 3.52088,-0.272 7.73733,0.5046 9.33968,4.06117 1.3839,3.48227 0.63641,7.31237 0.82877,10.97056 0,18.11284 0,36.22569 0,54.33853 z"
         id="path3824"
         inkscape:connector-curvature="0" /><path
         style="opacity:0.80000299;fill:#000000;fill-opacity:1;fill-rule:nonzero;stroke:none"
         d="m 534.168,244.3564 c 2.95391,-2.46438 4.22421,-6.43779 4.13328,-10.21817 -0.087,-3.61623 0.004,-7.23455 0.006,-10.85183 3.43533,0 6.87067,0 10.306,0 -0.005,4.06508 -0.008,7.69215 -0.008,12.19553 0,3.07469 -1.65906,6.1804 -4.37308,7.76119 -2.59188,1.57674 -5.70645,1.79304 -8.66809,1.73428 -0.72754,0 -1.45507,0 -2.1826,0 0.27816,-0.21098 0.55314,-0.43675 0.78649,-0.621 z"
         id="path3176"
         inkscape:connector-curvature="0"
         sodipodi:nodetypes="csccscccc" /><path
         style="opacity:0.80000299;fill:#000000;fill-opacity:1;fill-rule:nonzero;stroke:none"
         d="m 593.2324,326.873 c -5.31911,-0.01 -10.89441,0.3927 -15.7611,-2.20126 -9.01118,-4.1635 -14.32613,-14.79912 -12.19365,-24.50037 1.85864,-10.15332 11.56269,-18.04869 21.86275,-17.87837 1.87223,-0.25664 1.10856,-2.47355 1.266,-3.7788 0,-8.42574 0,-16.85147 0,-25.2772 6.91342,9.26194 14.05216,18.35742 20.94392,27.63258 4.37615,6.32047 6.4906,14.06 6.08708,21.72542 0.0281,4.12615 -0.36916,8.35488 -2.40237,12.04159 -3.66209,7.34853 -11.57797,12.28444 -19.80263,12.23641 z"
         id="path3192"
         inkscape:connector-curvature="0" /><path
         style="opacity:0.80000299;fill:#000000;fill-opacity:1;fill-rule:nonzero;stroke:none"
         d="m 531.3203,344.6084 c -6.0582,-5.42218 -9.35678,-13.62312 -8.975,-21.72332 0,-5.72523 0,-11.45045 0,-17.17568 2.20427,4.18517 3.72126,8.69974 6.01139,12.83607 1.37074,2.30373 3.10032,4.3932 5.10861,6.16893 -1.79193,4.68459 -3.56529,9.43754 -4.49583,14.37439 -0.25515,2.42989 2.32458,3.95318 4.50098,3.66461 12.18828,0 24.37657,0 36.56485,0 -7.04859,8.06141 -19.07325,11.07789 -29.13985,7.528 -3.53522,-1.209 -6.81539,-3.15504 -9.57515,-5.673 z"
         id="path3208"
         inkscape:connector-curvature="0" /><path
         style="opacity:0.60000598;fill:#000000;fill-opacity:1;fill-rule:nonzero;stroke:none"
         d="m 525.3145,223.2861 c 3.47667,0 6.95333,0 10.43,0 -0.007,4.06463 0.0871,8.13145 -0.0135,12.19422 -0.0724,2.92168 -1.49618,5.88499 -3.99922,7.51155 -1.89181,1.26751 -4.1753,1.79021 -6.42125,1.93723 -9.6e-4,-7.21433 0.002,-14.42867 0.004,-21.643 z"
         id="path3344"
         inkscape:connector-curvature="0"
         sodipodi:nodetypes="ccscccc" /><path
         style="opacity:0.60000598;fill:#000000;fill-opacity:1;fill-rule:nonzero;stroke:none"
         d="m 533.1055,340.1943 c -3.06932,-0.12677 -0.52611,-3.83901 -0.39558,-5.51709 4.59805,-14.75809 11.74351,-29.24264 23.19995,-39.87784 4.66261,-4.28563 10.10678,-7.77163 16.08263,-9.91107 -8.82514,6.56535 -12.23001,19.28674 -7.76103,29.36061 3.87243,9.49558 14.03745,15.80997 24.25936,15.18539 5.32208,0.1181 10.85576,0.0128 15.66317,-2.58937 2.9038,-1.39496 5.63404,-3.60229 7.6765,-5.87863 -4.05765,9.1572 -13.03098,15.27756 -22.608,17.466 -9.97754,2.52402 -20.32658,1.56747 -30.50637,1.76 -8.53687,0.001 -17.07381,-0.003 -25.61063,0.002 z"
         id="path3360"
         inkscape:connector-curvature="0" /><path
         style="opacity:0.60000598;fill:#000000;fill-opacity:1;fill-rule:nonzero;stroke:none"
         d="m 508.5059,346.1338 c -2.32655,-1.34986 -4.54083,-2.894 -6.592,-4.635 8.84084,0.1773 17.65325,1.38069 26.217,3.584 4.45168,4.64087 10.4268,7.80548 16.779,8.832 -10.24015,0.72376 -20.58744,-1.10281 -30.15753,-4.73894 -2.15786,-0.84897 -4.24529,-1.87105 -6.24647,-3.04206 z"
         id="path3376"
         inkscape:connector-curvature="0" /><path
         style="opacity:0.39999396;fill:#000000;fill-opacity:1;fill-rule:nonzero;stroke:none"
         d="m 585.6523,279.7588 c -12.09222,0.22249 -23.76664,5.57136 -32.361,13.984 -7.38959,-4.15428 -12.0184,-12.60593 -11.469,-21.06935 -0.0639,-5.75553 0.13786,-11.52123 -0.12092,-17.26941 -0.3207,-2.98027 -1.5936,-5.95617 -3.95708,-7.88024 5.0285,-0.0442 10.45352,-2.46472 12.38039,-7.39076 1.64318,-3.89977 0.87096,-8.18346 1.05421,-12.29009 8e-4,-1.51905 0.002,-3.0381 0.002,-4.55715 4.16967,0 8.33933,0 12.509,0 1.45179,12.38723 4.33313,24.85212 10.308,35.895 1.76594,3.65288 7.90063,1.95446 7.496,-2.11462 0,-11.26013 0,-22.52025 0,-33.78038 1.45033,0 2.90067,0 4.351,0 0,18.82133 0,37.64267 0,56.464 l -0.193,0.009 z"
         id="path3528"
         inkscape:connector-curvature="0" /><path
         style="opacity:0.39999396;fill:#000000;fill-opacity:1;fill-rule:nonzero;stroke:none"
         d="m 510.3379,291.7246 c 4.03926,2.03249 7.33832,5.4359 9.447,9.38566 0.0217,8.20796 -0.0444,16.4173 0.035,24.62434 0.25156,5.74474 2.21674,11.39731 5.577,16.063 -2.74889,-0.63008 -5.52057,-1.16065 -8.309,-1.583 -6.06908,-6.46467 -8.50813,-15.56297 -8.295,-24.27097 0,-8.45101 0,-16.90202 0,-25.35303 0.45126,0.45642 0.98311,0.82697 1.545,1.134 z"
         id="path3544"
         inkscape:connector-curvature="0" /><path
         style="opacity:0.39999396;fill:#000000;fill-opacity:1;fill-rule:nonzero;stroke:none"
         d="m 512.4512,258.10114 c 0,6.01193 0.017,12.02215 -0.0128,18.03238 -0.27145,3.1585 -1.73378,6.10771 -3.64517,8.59258 -0.0109,-9.91625 -0.0166,-19.78464 -0.0166,-29.749 0,-2.77948 -1.15731,-5.60991 -3.31541,-7.438 3.8424,0 7.74267,0 11.03099,0 -3.16735,2.32128 -4.04101,6.60143 -4.04101,10.56204 z"
         id="path3560"
         inkscape:connector-curvature="0"
         sodipodi:nodetypes="sccsccs" /><path
         inkscape:connector-curvature="0"
         id="path3776"
         style="opacity:0.19999701;fill:#000000;fill-opacity:1;fill-rule:nonzero;stroke:none"
         d="m 577.4941,223.2861 0,33.95 c -6.039,-10.858 -8.684,-24.799 -9.826,-33.95 l 9.826,0 z" /><path
         inkscape:connector-curvature="0"
         id="path3792"
         style="opacity:0.19999701;fill:#000000;fill-opacity:1;fill-rule:nonzero;stroke:none"
         d="m 539.2617,273.8336 c -0.053,0.997 -0.443,13.901 12.182,21.78 -3.709,3.834 -7.149,8.339 -10.276,13.505 -2.736,4.515 -4.931,9.006 -6.66,13.064 -2.334,-2.231 -4.174,-4.894 -5.471,-7.95 -2.722,-6.404 -4.904,-10.929 -6.871,-14.239 -3.476,-5.855 -6.519,-8.289 -10.601,-10.518 -0.557,-0.304 -1.25,-0.799 -1.379,-1.424 -0.141,-0.674 0.365,-1.416 0.59,-1.703 4.281,-5.494 4.254,-10.204 4.236,-10.734 l 0,-18.057 c 0,-4.11 1.324,-7.017 3.937,-8.643 2.057,-1.28 4.268,-1.379 4.897,-1.379 l 0.125,0.002 c 0.008,0 0.016,-0.002 0.025,-0.002 0.01,0 0.022,0.003 0.032,0.003 l 6.515,0 c 2.045,0.037 8.719,0.868 8.719,10.021 z"
         sodipodi:nodetypes="ccccccccccssccssccc" /><path
         sodipodi:nodetypes="ccsccc"
         inkscape:connector-curvature="0"
         id="path5047"
         d="m 525.3145,223.2861 c 3.47667,0 6.95333,0 10.43,0 -0.007,4.13653 -0.14364,8.13855 -0.0135,12.19422 0.15117,4.71086 -3.95009,9.21716 -10.42047,9.44878 -9.6e-4,-7.21433 0.002,-14.42867 0.004,-21.643 z"
         style="opacity:0.60000598;fill:#000000;fill-opacity:1;fill-rule:nonzero;stroke:none" /></g><text
       transform="matrix(1,0,0,-1,332.9287,10.8564)"
       id="text3874"><tspan
         style="font-size:8px;font-variant:normal;font-weight:normal;font-stretch:semi-condensed;writing-mode:lr-tb;fill:#808080;fill-opacity:1;fill-rule:nonzero;stroke:none;font-family:Gotham Narrow Book;-inkscape-font-specification:GothamNarrow-Book"
         x="0 4.6560001 8.7519999 11.544 14.968 16.823999 21.264 25.559999 27.632 32.200001 34.056 38.080002 42.375999 46.088001 50.528 52.599998 56.703999 58.776001 63.071999 67.167999 71.736 74.375999 78.816002 80.888 83.919998 88.216003 92.655998 96.952003 101.52 105.96 108.032 112.976 114.832 118.856 123.152 126.864 131.112"
         y="0"
         sodipodi:role="line"
         id="tspan3876">Versión blanco y negro (Fondo Blanco)</tspan></text>
</g></svg>